<svg xmlns="http://www.w3.org/2000/svg" xmlns:xlink="http://www.w3.org/1999/xlink" xmlns:inkscape="http://www.inkscape.org/namespaces/inkscape" version="1.1" width="1080" height="1080" viewBox="0 0 1080 1080">
<defs>
<clipPath id="clip_0">
<path transform="matrix(1,0,0,-1,0,1080)" d="M0 1080H1080V0H0Z"/>
</clipPath>
</defs>
<g inkscape:groupmode="layer" inkscape:label="Layer 1">
<path transform="matrix(1,0,0,-1,0,1080)" d="M.5 .5H1079.499V1079.499H.5Z" fill="#ffffff"/>
<path transform="matrix(1,0,0,-1,0,1080)" d="M0 0H1080V1080H0ZM1 1079H1079V1H1Z"/>
<g clip-path="url(#clip_0)">
<path transform="matrix(1,0,0,-1,433.7702,550.0273)" d="M0 0C-.15-1.59-.64-3.15-1.46-4.58L-78.79-139.1C-80.78-142.57-84.48-144.71-88.48-144.71H-124.94C-132.09-144.71-137.01-138.29-136-131.84-135.8-130.53-135.35-129.22-134.63-127.96L-39.28 37.94C-34.85 45.65-23.71 45.65-19.28 37.94L-1.46 6.92C-.24 4.79 .25 2.36 0 0" fill="#1e4d81"/>
<path transform="matrix(1,0,0,-1,771.3057,694.7372)" d="M0 0H-36.446C-40.448 0-44.145 2.139-46.138 5.609L-122.433 138.393C-124.478 141.951-124.478 146.329-122.432 149.887L-104.617 180.88C-100.182 188.596-89.051 188.595-84.617 180.879L9.692 16.747C13.974 9.295 8.594 0 0 0" fill="#1e4d81"/>
<path transform="matrix(1,0,0,-1,641.0703,450.12739)" d="M0 0-13-22.61C-19.04-33.12-34.2-33.12-40.24-22.61L-87.35 59.38C-90.37 64.63-95.67 67.26-100.97 67.26V175.57C-95.67 175.57-90.37 172.94-87.35 167.68L0 15.66C2.79 10.81 2.79 4.85 0 0" fill="#d15e00"/>
<path transform="matrix(1,0,0,-1,581.6902,694.7372)" d="M0 0H-129.97C-135.59 0-140.79 3.01-143.59 7.88L-156.54 30.42C-162.56 40.89-155 53.96-142.92 53.96H-58.16C-46.08 53.96-38.52 67.03-44.54 77.5L-114.95 200.05Z" fill="#d15e00"/>
<path transform="matrix(1,0,0,-1,616.7702,694.7372)" d="M0 0H-35.08L-150.03 200.05-150.04 200.03-176.66 246.37C-179.45 251.22-179.45 257.18-176.66 262.03L-90.29 412.3C-87.27 417.55-81.97 420.18-76.67 420.18V311.87C-81.97 311.87-87.27 309.24-90.29 303.99L-114.41 262.03C-117.2 257.18-117.2 251.22-114.41 246.37L-3.85 53.96 13.63 23.54C19.64 13.06 12.08 0 0 0" fill="#ff7900"/>
<path transform="matrix(1,0,0,-1,253.1191,782.91409)" d="M0 0C1.733-1.968 3.443-3.438 5.128-4.412 6.813-5.387 8.494-5.874 10.169-5.874 11.728-5.874 13.008-5.455 14.012-4.617 15.015-3.779 15.517-2.718 15.517-1.432 15.517-.01 15.083 1.086 14.217 1.855 13.35 2.625 11.387 3.419 8.328 4.237 4.139 5.367 1.178 6.838-.556 8.65-2.29 10.462-3.156 12.946-3.156 16.102-3.156 20.193-1.788 23.529 .95 26.11 3.687 28.692 7.237 29.982 11.601 29.982 13.958 29.982 16.194 29.666 18.308 29.033 20.421 28.399 22.423 27.44 24.313 26.154L20.66 17.768C19.335 18.897 17.977 19.75 16.584 20.324 15.19 20.899 13.812 21.187 12.449 21.187 11.046 21.187 9.906 20.851 9.03 20.179 8.153 19.507 7.715 18.645 7.715 17.593 7.715 16.521 8.099 15.664 8.869 15.021 9.638 14.378 11.124 13.764 13.325 13.18L13.852 13.033C18.604 11.748 21.731 10.335 23.232 8.796 24.245 7.744 25.015 6.482 25.541 5.012 26.066 3.541 26.33 1.909 26.33 .117 26.33-4.423 24.839-8.07 21.858-10.827 18.878-13.584 14.903-14.962 9.936-14.962 6.955-14.962 4.242-14.455 1.797-13.442-.648-12.43-3-10.842-5.26-8.679Z" fill="#02183d"/>
<path transform="matrix(1,0,0,-1,296.9243,774.1758)" d="M0 0H2.162C4.675 0 6.512 .428 7.671 1.285 8.83 2.143 9.41 3.486 9.41 5.318 9.41 7.461 8.869 8.985 7.788 9.892 6.707 10.798 4.89 11.25 2.338 11.25H0ZM-10.93-22.561V20.222H1.256C6.029 20.222 9.356 20.003 11.236 19.564 13.116 19.126 14.738 18.391 16.102 17.358 17.641 16.189 18.824 14.698 19.652 12.887 20.48 11.075 20.894 9.078 20.894 6.896 20.894 3.584 20.081 .891 18.454-1.184 16.827-3.259 14.455-4.638 11.338-5.319L22.998-22.561H9.819L0-5.815V-22.561Z" fill="#02183d"/>
<path transform="matrix(1,0,0,-1,324.3643,796.7363)" d="M0 0V42.782H26.213V33.401H11.368V25.979H25.366V16.803H11.368V9.585H26.213V0Z" fill="#02183d"/>
<path transform="matrix(1,0,0,-1,358.292,796.7363)" d="M0 0V42.782H26.213V33.401H11.368V25.979H25.366V16.803H11.368V9.585H26.213V0Z" fill="#02183d"/>
<path transform="matrix(1,0,0,-1,422.2612,780.751)" d="M0 0H11.602L7.247 14.114C7.111 14.543 6.926 15.234 6.692 16.189 6.458 17.144 6.156 18.371 5.786 19.871 5.533 18.819 5.284 17.815 5.041 16.861 4.797 15.906 4.549 14.991 4.295 14.114ZM-16.336-15.985-1.578 26.797H13.033L27.82-15.985H16.219L14.056-8.329H-2.513L-4.734-15.985Z" fill="#02183d"/>
<path transform="matrix(1,0,0,-1,465.1021,774.1758)" d="M0 0H2.162C4.675 0 6.512 .428 7.671 1.285 8.83 2.143 9.41 3.486 9.41 5.318 9.41 7.461 8.869 8.985 7.788 9.892 6.707 10.798 4.89 11.25 2.338 11.25H0ZM-10.93-22.561V20.222H1.256C6.029 20.222 9.356 20.003 11.236 19.564 13.116 19.126 14.738 18.391 16.102 17.358 17.641 16.189 18.824 14.698 19.652 12.887 20.48 11.075 20.894 9.078 20.894 6.896 20.894 3.584 20.081 .891 18.454-1.184 16.827-3.259 14.455-4.638 11.338-5.319L22.998-22.561H9.819L0-5.815V-22.561Z" fill="#02183d"/>
<path transform="matrix(1,0,0,-1,492.2793,753.9541)" d="M0 0H11.63V-20.807C11.63-23.865 11.708-26.062 11.864-27.396 12.02-28.731 12.283-29.847 12.653-30.742 13.101-31.834 13.881-32.667 14.991-33.241 16.102-33.815 17.456-34.103 19.053-34.103 20.65-34.103 22-33.815 23.101-33.241 24.201-32.667 24.985-31.834 25.453-30.742 25.823-29.847 26.086-28.731 26.242-27.396 26.398-26.062 26.476-23.865 26.476-20.807V-17.885 0H38.077V-22.618C38.077-27.313 37.794-30.776 37.23-33.007 36.665-35.238 35.71-37.143 34.366-38.721 32.905-40.454 30.898-41.755 28.346-42.621 25.793-43.488 22.696-43.922 19.053-43.922 15.39-43.922 12.288-43.488 9.746-42.621 7.203-41.755 5.191-40.454 3.711-38.721 2.386-37.143 1.437-35.238 .862-33.007 .287-30.776 0-27.313 0-22.618V-18.177Z" fill="#02183d"/>
<path transform="matrix(1,0,0,-1,539.2109,796.7363)" d="M0 0V42.782H11.251L27.411 20.777C27.723 20.329 28.234 19.428 28.945 18.074 29.656 16.72 30.44 15.108 31.298 13.238 31.064 15.011 30.894 16.589 30.787 17.972 30.68 19.355 30.626 20.582 30.626 21.654V42.782H41.818V0H30.626L14.465 22.093C14.134 22.54 13.613 23.441 12.902 24.796 12.191 26.149 11.416 27.742 10.579 29.573 10.813 27.781 10.982 26.193 11.09 24.811 11.197 23.427 11.251 22.199 11.251 21.128V0Z" fill="#02183d"/>
<path transform="matrix(1,0,0,-1,601.5137,780.751)" d="M0 0H11.602L7.248 14.114C7.111 14.543 6.926 15.234 6.692 16.189 6.459 17.144 6.156 18.371 5.787 19.871 5.533 18.819 5.285 17.815 5.041 16.861 4.797 15.906 4.549 14.991 4.296 14.114ZM-16.336-15.985-1.578 26.797H13.033L27.82-15.985H16.219L14.057-8.329H-2.513L-4.734-15.985Z" fill="#02183d"/>
<path transform="matrix(1,0,0,-1,663.3789,755.6201)" d="M0 0V-12.741C-1.598-10.968-3.189-9.668-4.777-8.84-6.365-8.012-8.065-7.598-9.877-7.598-13.229-7.598-15.941-8.742-18.016-11.031-20.09-13.32-21.128-16.306-21.128-19.988-21.128-23.417-20.071-26.262-17.957-28.521-15.844-30.781-13.15-31.911-9.877-31.911-8.065-31.911-6.365-31.497-4.777-30.669-3.189-29.841-1.598-28.531 0-26.738V-39.509C-1.851-40.405-3.691-41.077-5.523-41.525-7.354-41.974-9.205-42.197-11.075-42.197-13.413-42.197-15.57-41.92-17.548-41.364-19.525-40.81-21.342-39.967-22.998-38.837-26.193-36.694-28.629-33.996-30.304-30.742-31.979-27.488-32.816-23.826-32.816-19.754-32.816-16.481-32.287-13.506-31.225-10.827-30.162-8.148-28.561-5.718-26.417-3.535-24.391-1.451-22.107 .107-19.564 1.14-17.021 2.173-14.192 2.688-11.075 2.688-9.205 2.688-7.354 2.465-5.523 2.017-3.691 1.568-1.851 .896 0 0" fill="#02183d"/>
<path transform="matrix(1,0,0,-1,669.9541,796.7363)" d="M0 0V42.782H11.66V26.154H27.206V42.782H38.896V0H27.206V17.417H11.66V0Z" fill="#02183d"/>
<path transform="matrix(1,0,0,-1,729.248,780.751)" d="M0 0H11.602L7.246 14.114C7.11 14.543 6.926 15.234 6.691 16.189 6.457 17.144 6.155 18.371 5.785 19.871 5.532 18.819 5.283 17.815 5.041 16.861 4.797 15.906 4.549 14.991 4.295 14.114ZM-16.336-15.985-1.578 26.797H13.033L27.819-15.985H16.219L14.056-8.329H-2.514L-4.734-15.985Z" fill="#02183d"/>
<path transform="matrix(1,0,0,-1,761.1582,796.7363)" d="M0 0V42.782H11.66V9.994H26.155V0Z" fill="#02183d"/>
<path transform="matrix(1,0,0,-1,804.3213,780.751)" d="M0 0H11.602L7.247 14.114C7.11 14.543 6.926 15.234 6.692 16.189 6.458 17.144 6.155 18.371 5.786 19.871 5.532 18.819 5.284 17.815 5.041 16.861 4.797 15.906 4.549 14.991 4.296 14.114ZM-16.336-15.985-1.578 26.797H13.033L27.819-15.985H16.219L14.056-8.329H-2.513L-4.734-15.985Z" fill="#02183d"/>
<path transform="matrix(1,0,0,-1,0,1080)" d="M365.266 245.377H370.46299V213.409H365.266Z" fill="#02183d"/>
<path transform="matrix(1,0,0,-1,383.521,866.5908)" d="M0 0V33.234L20.308 13.691C20.861 13.138 21.421 12.548 21.989 11.923 22.557 11.297 23.153 10.591 23.78 9.805V31.968H28.583V-1.245L7.861 18.648C7.308 19.187 6.772 19.754 6.256 20.352 5.739 20.948 5.248 21.574 4.782 22.229V0Z" fill="#02183d"/>
<path transform="matrix(1,0,0,-1,425.0317,866.5908)" d="M0 0V31.968H17.84V27.558H5.197V19.587H17.84V15.023H5.197V0Z" fill="#02183d"/>
<path transform="matrix(1,0,0,-1,459.292,848.248)" d="M0 0H.939C3.69 0 5.517 .319 6.42 .96 7.322 1.601 7.774 2.736 7.774 4.367 7.774 6.128 7.29 7.369 6.322 8.09 5.354 8.811 3.56 9.171 .939 9.171H0ZM-.327-4.04V-18.343H-5.197V13.625H2.053C4.178 13.625 5.827 13.486 6.999 13.21 8.17 12.934 9.171 12.476 10.001 11.835 10.991 11.063 11.755 10.066 12.294 8.843 12.833 7.62 13.102 6.281 13.102 4.825 13.102 2.263 12.483 .258 11.246-1.19 10.008-2.64 8.181-3.509 5.765-3.8L16.771-18.343H10.896L.262-4.04Z" fill="#02183d"/>
<path transform="matrix(1,0,0,-1,491.479,854.0352)" d="M0 0H8.909L5.633 7.293C5.444 7.759 5.248 8.294 5.044 8.898 4.84 9.502 4.636 10.176 4.433 10.918 4.258 10.22 4.072 9.567 3.875 8.964 3.679 8.359 3.479 7.803 3.275 7.293ZM14.368-12.556 10.743-4.323H-1.922L-5.634-12.556H-11.093L4.389 20.679 19.849-12.556Z" fill="#02183d"/>
<path transform="matrix(1,0,0,-1,556.7246,850.21389)" d="M0 0H12.666C12.666-.218 12.673-.524 12.688-.917 12.73-1.951 12.753-2.649 12.753-3.014 12.753-7.512 11.465-11.005 8.888-13.494 6.311-15.984 2.679-17.229-2.008-17.229-4.629-17.229-6.965-16.843-9.018-16.071-11.07-15.3-12.868-14.136-14.411-12.577-15.925-11.034-17.086-9.223-17.894-7.141-18.702-5.059-19.106-2.831-19.106-.458-19.106 1.958-18.695 4.186-17.872 6.224-17.05 8.262-15.831 10.06-14.215 11.617-12.657 13.146-10.83 14.31-8.734 15.11-6.638 15.911-4.396 16.312-2.008 16.312 .51 16.312 2.763 15.854 4.75 14.937 6.736 14.019 8.51 12.614 10.066 10.722L6.268 7.861C5.189 9.113 3.975 10.045 2.621 10.656 1.268 11.268-.247 11.573-1.921 11.573-5.386 11.573-8.213 10.463-10.404 8.243-12.596 6.023-13.69 3.137-13.69-.415-13.69-4.025-12.596-6.955-10.404-9.204-8.213-11.453-5.371-12.577-1.877-12.577 1.092-12.577 3.429-11.886 5.133-10.503 6.836-9.12 7.687-7.235 7.687-4.848V-4.389H0Z" fill="#02183d"/>
<path transform="matrix(1,0,0,-1,585.7227,848.248)" d="M0 0H.939C3.691 0 5.518 .319 6.42 .96 7.322 1.601 7.774 2.736 7.774 4.367 7.774 6.128 7.29 7.369 6.322 8.09 5.354 8.811 3.561 9.171 .939 9.171H0ZM-.326-4.04V-18.343H-5.196V13.625H2.053C4.179 13.625 5.827 13.486 6.999 13.21 8.171 12.934 9.172 12.476 10.002 11.835 10.992 11.063 11.756 10.066 12.295 8.843 12.833 7.62 13.103 6.281 13.103 4.825 13.103 2.263 12.483 .258 11.246-1.19 10.009-2.64 8.182-3.509 5.766-3.8L16.771-18.343H10.896L.263-4.04Z" fill="#02183d"/>
<path transform="matrix(1,0,0,-1,638.5234,850.6719)" d="M0 0C0 1.615-.295 3.151-.885 4.607-1.475 6.062-2.322 7.358-3.428 8.494-4.506 9.614-5.754 10.478-7.174 11.081-8.593 11.686-10.088 11.987-11.66 11.987-13.232 11.987-14.729 11.689-16.148 11.093-17.567 10.495-18.83 9.629-19.937 8.494-21.043 7.373-21.888 6.084-22.47 4.629-23.052 3.173-23.343 1.63-23.343 0-23.343-1.616-23.052-3.145-22.47-4.586-21.888-6.027-21.043-7.315-19.937-8.451-18.83-9.587-17.571-10.453-16.158-11.05-14.747-11.646-13.248-11.944-11.66-11.944-10.104-11.944-8.622-11.646-7.217-11.05-5.812-10.453-4.55-9.587-3.428-8.451-2.322-7.315-1.475-6.023-.885-4.575-.295-3.127 0-1.602 0 0M5.415 0C5.415-2.271 4.989-4.419 4.138-6.442 3.286-8.466 2.045-10.271 .414-11.857-1.23-13.444-3.086-14.66-5.153-15.504-7.221-16.349-9.39-16.771-11.66-16.771-13.961-16.771-16.155-16.345-18.244-15.493-20.334-14.642-22.179-13.43-23.779-11.857-25.41-10.271-26.648-8.473-27.492-6.464-28.336-4.455-28.758-2.301-28.758 0-28.758 2.285-28.336 4.439-27.492 6.463-26.648 8.486-25.41 10.299-23.779 11.9-22.149 13.486-20.301 14.695-18.233 15.525-16.166 16.354-13.975 16.77-11.66 16.77-9.361 16.77-7.181 16.354-5.121 15.525-3.061 14.695-1.216 13.486 .414 11.9 2.045 10.284 3.286 8.461 4.138 6.431 4.989 4.399 5.415 2.256 5.415 0" fill="#02183d"/>
<path transform="matrix(1,0,0,-1,655.3594,834.623)" d="M0 0H5.131V-19.412C5.131-22.294 5.797-24.46 7.129-25.908 8.461-27.357 10.451-28.081 13.102-28.081 15.736-28.081 17.719-27.357 19.051-25.908 20.383-24.46 21.049-22.294 21.049-19.412V0H26.246V-19.893C26.246-24.216 25.154-27.451 22.971-29.599 20.787-31.746 17.497-32.819 13.102-32.819 8.705-32.819 5.422-31.749 3.253-29.609 1.084-27.47 0-24.23 0-19.893Z" fill="#02183d"/>
<path transform="matrix(1,0,0,-1,699.5547,847.9863)" d="M0 0H1.332C4.215 0 6.137 .312 7.098 .938 8.059 1.564 8.539 2.671 8.539 4.258 8.539 5.961 8.025 7.162 6.999 7.861 5.973 8.56 4.084 8.909 1.332 8.909H0ZM-.326-4.258V-18.604H-5.196V13.363H2.664C4.994 13.363 6.708 13.236 7.807 12.981 8.906 12.727 9.863 12.308 10.679 11.726 11.684 10.983 12.469 9.982 13.037 8.724 13.604 7.464 13.889 6.077 13.889 4.563 13.889 3.05 13.604 1.652 13.037 .371 12.469-.91 11.684-1.914 10.679-2.643 9.863-3.225 8.906-3.64 7.807-3.887 6.708-4.135 4.994-4.258 2.664-4.258H1.639Z" fill="#02183d"/>
<path transform="matrix(1,0,0,-1,759.7316,849.3439)" stroke-width="2" stroke-linecap="butt" stroke-miterlimit="10" stroke-linejoin="miter" fill="none" stroke="#02183d" d="M0 0H-33.037"/>
<path transform="matrix(1,0,0,-1,352.0279,849.3439)" stroke-width="2" stroke-linecap="butt" stroke-miterlimit="10" stroke-linejoin="miter" fill="none" stroke="#02183d" d="M0 0H-33.037"/>
<path transform="matrix(1,0,0,-1,433.7702,550.0273)" d="M0 0-136-131.84C-135.8-130.53-135.35-129.22-134.63-127.96L-39.28 37.94C-34.85 45.65-23.71 45.65-19.28 37.94L-1.46 6.92C-.24 4.79 .25 2.36 0 0" fill="#087bb4"/>
<path transform="matrix(1,0,0,-1,646.9514,550.0273)" d="M0 0 136-131.84C135.8-130.53 135.35-129.22 134.63-127.96L39.28 37.94C34.85 45.65 23.71 45.65 19.28 37.94L1.46 6.92C.24 4.79-.25 2.36 0 0" fill="#087bb4"/>
</g>
</g>
</svg>
