<?xml version="1.0" encoding="UTF-8"?>
<svg id="Layer_1" xmlns="http://www.w3.org/2000/svg" version="1.1" xmlns:xlink="http://www.w3.org/1999/xlink" viewBox="0 0 585.48 602.58">
  <!-- Generator: Adobe Illustrator 29.7.1, SVG Export Plug-In . SVG Version: 2.1.1 Build 8)  -->
  <defs>
    <style>
      .st0 {
        fill: #d15e00;
      }

      .st1 {
        fill: #ff7900;
      }

      .st2 {
        fill: #087bb4;
      }

      .st3 {
        filter: url(#drop-shadow-1);
      }

      .st4 {
        fill: none;
        stroke: #02183d;
        stroke-miterlimit: 10;
        stroke-width: 2px;
      }

      .st5 {
        fill: #1e4d81;
      }

      .st6 {
        fill: #02183d;
      }
    </style>
    <filter id="drop-shadow-1" x="50.98" y="0" width="484.86" height="420.18" filterUnits="userSpaceOnUse">
      <feOffset dx="8" dy="8"/>
      <feGaussianBlur result="blur" stdDeviation="8"/>
      <feFlood flood-color="#000" flood-opacity=".3"/>
      <feComposite in2="blur" operator="in"/>
      <feComposite in="SourceGraphic"/>
    </filter>
  </defs>
  <g class="st3">
    <path class="st5" d="M187.11,275.47c-.15,1.59-.64,3.15-1.46,4.58l-77.33,134.52c-1.99,3.47-5.69,5.61-9.69,5.61h-36.46c-7.15,0-12.07-6.42-11.06-12.87.2-1.31.65-2.62,1.37-3.88l95.35-165.9c4.43-7.71,15.57-7.71,20,0l17.82,31.02c1.22,2.13,1.71,4.56,1.46,6.92Z"/>
    <path class="st5" d="M524.64,420.18h-36.45c-4,0-7.7-2.14-9.69-5.61l-76.29-132.78c-2.04-3.56-2.04-7.94,0-11.49l17.82-30.99c4.43-7.72,15.57-7.71,20,0l94.31,164.13c4.28,7.45-1.1,16.75-9.69,16.75Z"/>
    <path class="st0" d="M394.41,175.57l-13,22.61c-6.04,10.51-21.2,10.51-27.24,0l-47.11-81.99c-3.02-5.25-8.32-7.88-13.62-7.88V0c5.3,0,10.6,2.63,13.62,7.89l87.35,152.02c2.79,4.85,2.79,10.81,0,15.66Z"/>
    <path class="st0" d="M335.03,420.18h-129.97c-5.62,0-10.82-3.01-13.62-7.88l-12.95-22.54c-6.02-10.47,1.54-23.54,13.62-23.54h84.76c12.08,0,19.64-13.07,13.62-23.54l-70.41-122.55,114.95,200.05Z"/>
    <path class="st1" d="M370.11,420.18h-35.08l-114.95-200.05v.02s-26.63-46.34-26.63-46.34c-2.79-4.85-2.79-10.81,0-15.66L279.82,7.88c3.02-5.25,8.32-7.88,13.62-7.88v108.31c-5.3,0-10.6,2.63-13.62,7.88l-24.12,41.96c-2.79,4.85-2.79,10.81,0,15.66l110.56,192.41,17.48,30.42c6.01,10.48-1.55,23.54-13.63,23.54Z"/>
  </g>
  <g>
    <path class="st6" d="M6.46,508.36c1.73,1.97,3.44,3.44,5.13,4.41,1.68.97,3.37,1.46,5.04,1.46,1.56,0,2.84-.42,3.84-1.26,1-.84,1.5-1.9,1.5-3.19,0-1.42-.43-2.52-1.3-3.29-.87-.77-2.83-1.56-5.89-2.38-4.19-1.13-7.15-2.6-8.88-4.41-1.73-1.81-2.6-4.3-2.6-7.45,0-4.09,1.37-7.43,4.11-10.01,2.74-2.58,6.29-3.87,10.65-3.87,2.36,0,4.59.32,6.71.95,2.11.63,4.12,1.59,6,2.88l-3.65,8.39c-1.33-1.13-2.68-1.98-4.08-2.56-1.39-.58-2.77-.86-4.14-.86s-2.54.34-3.42,1.01-1.31,1.54-1.31,2.59.38,1.93,1.15,2.57c.77.64,2.25,1.26,4.46,1.84l.53.15c4.75,1.29,7.88,2.7,9.38,4.24,1.01,1.05,1.78,2.31,2.31,3.79s.79,3.1.79,4.89c0,4.54-1.49,8.19-4.47,10.94-2.98,2.76-6.96,4.13-11.92,4.13-2.98,0-5.69-.51-8.14-1.52-2.45-1.01-4.8-2.6-7.06-4.76l5.26-8.68Z"/>
    <path class="st6" d="M39.33,522.18v-42.78h12.19c4.77,0,8.1.22,9.98.66,1.88.44,3.5,1.17,4.87,2.21,1.54,1.17,2.72,2.66,3.55,4.47.83,1.81,1.24,3.81,1.24,5.99,0,3.31-.81,6.01-2.44,8.08-1.63,2.07-4,3.45-7.12,4.13l11.66,17.24h-13.18l-9.82-16.75v16.75h-10.93ZM50.26,499.62h2.16c2.51,0,4.35-.43,5.51-1.29s1.74-2.2,1.74-4.03c0-2.14-.54-3.67-1.62-4.57-1.08-.91-2.9-1.36-5.45-1.36h-2.34v11.25Z"/>
    <path class="st6" d="M77.7,522.18v-42.78h26.21v9.38h-14.84v7.42h14v9.18h-14v7.22h14.84v9.59h-26.21Z"/>
    <path class="st6" d="M111.63,522.18v-42.78h26.21v9.38h-14.84v7.42h14v9.18h-14v7.22h14.84v9.59h-26.21Z"/>
    <path class="st6" d="M159.26,522.18l14.76-42.78h14.61l14.79,42.78h-11.6l-2.16-7.66h-16.57l-2.22,7.66h-11.6ZM175.6,506.19h11.6l-4.35-14.11c-.14-.43-.32-1.12-.55-2.08-.23-.95-.54-2.18-.91-3.68-.25,1.05-.5,2.06-.75,3.01-.24.96-.49,1.87-.75,2.75l-4.3,14.11Z"/>
    <path class="st6" d="M207.51,522.18v-42.78h12.19c4.77,0,8.1.22,9.98.66,1.88.44,3.5,1.17,4.87,2.21,1.54,1.17,2.72,2.66,3.55,4.47.83,1.81,1.24,3.81,1.24,5.99,0,3.31-.81,6.01-2.44,8.08-1.63,2.07-4,3.45-7.12,4.13l11.66,17.24h-13.18l-9.82-16.75v16.75h-10.93ZM218.44,499.62h2.16c2.51,0,4.35-.43,5.51-1.29s1.74-2.2,1.74-4.03c0-2.14-.54-3.67-1.62-4.57-1.08-.91-2.9-1.36-5.45-1.36h-2.34v11.25Z"/>
    <path class="st6" d="M245.62,479.4h11.63v20.81c0,3.06.08,5.26.23,6.59.16,1.34.42,2.45.79,3.35.45,1.09,1.23,1.93,2.34,2.5,1.11.57,2.46.86,4.06.86s2.95-.29,4.05-.86c1.1-.57,1.88-1.41,2.35-2.5.37-.89.63-2.01.79-3.35.16-1.33.23-3.53.23-6.59v-20.81h11.6v22.62c0,4.7-.28,8.16-.85,10.39-.57,2.23-1.52,4.13-2.86,5.71-1.46,1.73-3.47,3.04-6.02,3.9-2.55.87-5.65,1.3-9.29,1.3s-6.77-.43-9.31-1.3c-2.54-.87-4.55-2.17-6.03-3.9-1.33-1.58-2.28-3.48-2.85-5.71s-.86-5.69-.86-10.39v-22.62Z"/>
    <path class="st6" d="M292.55,522.18v-42.78h11.25l16.16,22.01c.31.45.82,1.35,1.54,2.7.71,1.35,1.49,2.96,2.35,4.84-.23-1.77-.4-3.35-.51-4.73-.11-1.38-.16-2.61-.16-3.68v-21.13h11.19v42.78h-11.19l-16.16-22.09c-.33-.45-.85-1.35-1.56-2.7-.71-1.35-1.49-2.95-2.32-4.78.23,1.79.4,3.38.51,4.76s.16,2.61.16,3.68v21.13h-11.25Z"/>
    <path class="st6" d="M338.52,522.18l14.76-42.78h14.61l14.79,42.78h-11.6l-2.16-7.66h-16.57l-2.22,7.66h-11.6ZM354.85,506.19h11.6l-4.35-14.11c-.14-.43-.32-1.12-.56-2.08-.23-.95-.54-2.18-.91-3.68-.25,1.05-.5,2.06-.75,3.01-.24.96-.49,1.87-.75,2.75l-4.29,14.11Z"/>
    <path class="st6" d="M416.72,481.06v12.74c-1.6-1.77-3.19-3.07-4.78-3.9s-3.29-1.24-5.1-1.24c-3.35,0-6.06,1.14-8.14,3.43-2.08,2.29-3.11,5.28-3.11,8.96,0,3.43,1.06,6.27,3.17,8.53,2.11,2.26,4.81,3.39,8.08,3.39,1.81,0,3.51-.41,5.1-1.24s3.18-2.14,4.78-3.93v12.77c-1.85.9-3.69,1.57-5.52,2.02-1.83.45-3.68.67-5.55.67-2.34,0-4.5-.28-6.47-.83-1.98-.55-3.79-1.4-5.45-2.53-3.2-2.14-5.63-4.84-7.31-8.1s-2.51-6.92-2.51-10.99c0-3.27.53-6.25,1.59-8.93,1.06-2.68,2.66-5.11,4.81-7.29,2.03-2.08,4.31-3.64,6.85-4.67,2.54-1.03,5.37-1.55,8.49-1.55,1.87,0,3.72.22,5.55.67,1.83.45,3.67,1.12,5.52,2.02Z"/>
    <path class="st6" d="M423.29,522.18v-42.78h11.66v16.63h15.55v-16.63h11.69v42.78h-11.69v-17.42h-15.55v17.42h-11.66Z"/>
    <path class="st6" d="M466.25,522.18l14.76-42.78h14.61l14.79,42.78h-11.6l-2.16-7.66h-16.57l-2.22,7.66h-11.6ZM482.59,506.19h11.6l-4.35-14.11c-.14-.43-.32-1.12-.55-2.08-.23-.95-.54-2.18-.91-3.68-.25,1.05-.5,2.06-.75,3.01-.24.96-.49,1.87-.75,2.75l-4.3,14.11Z"/>
    <path class="st6" d="M514.5,522.18v-42.78h11.66v32.79h14.49v9.99h-26.15Z"/>
    <path class="st6" d="M541.32,522.18l14.76-42.78h14.61l14.79,42.78h-11.6l-2.16-7.66h-16.57l-2.22,7.66h-11.6ZM557.66,506.19h11.6l-4.35-14.11c-.14-.43-.32-1.12-.56-2.08-.23-.95-.54-2.18-.91-3.68-.25,1.05-.5,2.06-.75,3.01-.24.96-.49,1.87-.75,2.75l-4.3,14.11Z"/>
  </g>
  <g>
    <g>
      <path class="st6" d="M118.6,592.03v-31.97h5.2v31.97h-5.2Z"/>
      <path class="st6" d="M136.86,592.03v-33.23l20.31,19.54c.55.55,1.11,1.14,1.68,1.77.57.62,1.17,1.33,1.79,2.12v-22.16h4.8v33.21l-20.72-19.89c-.55-.54-1.09-1.11-1.61-1.7-.52-.6-1.01-1.22-1.47-1.88v22.23h-4.78Z"/>
      <path class="st6" d="M178.37,592.03v-31.97h17.84v4.41h-12.64v7.97h12.64v4.56h-12.64v15.02h-5.2Z"/>
      <path class="st6" d="M212.3,577.73v14.3h-4.87v-31.97h7.25c2.12,0,3.77.14,4.95.41,1.17.28,2.17.73,3,1.38.99.77,1.75,1.77,2.29,2.99.54,1.22.81,2.56.81,4.02,0,2.56-.62,4.57-1.86,6.02-1.24,1.45-3.06,2.32-5.48,2.61l11,14.54h-5.87l-10.63-14.3h-.59ZM212.63,573.69h.94c2.75,0,4.58-.32,5.48-.96.9-.64,1.35-1.78,1.35-3.41,0-1.76-.48-3-1.45-3.72s-2.76-1.08-5.38-1.08h-.94v9.17Z"/>
      <path class="st6" d="M259.19,592.03l-3.62-8.23h-12.67l-3.71,8.23h-5.46l15.48-33.23,15.46,33.23h-5.48ZM244.82,579.48h8.91l-3.28-7.29c-.19-.47-.39-1-.59-1.61-.2-.6-.41-1.28-.61-2.02-.17.7-.36,1.35-.56,1.95-.2.61-.4,1.16-.6,1.67l-3.28,7.29Z"/>
      <path class="st6" d="M310.06,575.66h12.67c0,.22,0,.53.02.92.04,1.03.07,1.73.07,2.1,0,4.5-1.29,7.99-3.87,10.48-2.58,2.49-6.21,3.73-10.9,3.73-2.62,0-4.96-.38-7.01-1.16s-3.85-1.94-5.39-3.49c-1.51-1.54-2.68-3.36-3.48-5.44s-1.21-4.31-1.21-6.68.41-4.64,1.23-6.68c.82-2.04,2.04-3.84,3.66-5.39,1.56-1.53,3.38-2.69,5.48-3.49s4.34-1.2,6.73-1.2c2.52,0,4.77.46,6.76,1.38,1.99.92,3.76,2.32,5.32,4.21l-3.8,2.86c-1.08-1.25-2.29-2.18-3.65-2.79s-2.87-.92-4.54-.92c-3.46,0-6.29,1.11-8.48,3.33-2.19,2.22-3.29,5.11-3.29,8.66s1.09,6.54,3.29,8.79c2.19,2.25,5.03,3.37,8.53,3.37,2.97,0,5.31-.69,7.01-2.07s2.55-3.27,2.55-5.66v-.46h-7.69v-4.39Z"/>
      <path class="st6" d="M338.73,577.73v14.3h-4.87v-31.97h7.25c2.13,0,3.77.14,4.95.41,1.17.28,2.17.73,3,1.38.99.77,1.75,1.77,2.29,2.99s.81,2.56.81,4.02c0,2.56-.62,4.57-1.86,6.02-1.24,1.45-3.06,2.32-5.48,2.61l11.01,14.54h-5.87l-10.63-14.3h-.59ZM339.06,573.69h.94c2.75,0,4.58-.32,5.48-.96.9-.64,1.35-1.78,1.35-3.41,0-1.76-.48-3-1.45-3.72-.97-.72-2.76-1.08-5.38-1.08h-.94v9.17Z"/>
      <path class="st6" d="M397.28,576.11c0,2.27-.43,4.42-1.28,6.44s-2.09,3.83-3.72,5.42c-1.65,1.59-3.5,2.8-5.57,3.65-2.07.84-4.24,1.27-6.51,1.27s-4.49-.43-6.58-1.28c-2.09-.85-3.93-2.06-5.54-3.63-1.63-1.59-2.87-3.38-3.71-5.39-.84-2.01-1.27-4.16-1.27-6.46s.42-4.44,1.27-6.46c.84-2.02,2.08-3.84,3.71-5.44,1.63-1.59,3.48-2.79,5.55-3.62,2.07-.83,4.26-1.24,6.57-1.24s4.48.41,6.54,1.24,3.91,2.04,5.54,3.62c1.63,1.62,2.87,3.44,3.72,5.47.85,2.03,1.28,4.18,1.28,6.43ZM391.86,576.11c0-1.62-.29-3.15-.88-4.61-.59-1.46-1.44-2.75-2.54-3.89-1.08-1.12-2.33-1.98-3.75-2.59s-2.92-.91-4.49-.91-3.07.3-4.49.89c-1.42.6-2.68,1.46-3.79,2.6-1.11,1.12-1.95,2.41-2.53,3.87s-.87,3-.87,4.63.29,3.14.87,4.59,1.43,2.73,2.53,3.87c1.11,1.13,2.37,2,3.78,2.6,1.41.6,2.91.89,4.5.89s3.04-.3,4.44-.89c1.4-.6,2.67-1.46,3.79-2.6,1.11-1.14,1.95-2.43,2.54-3.88.59-1.45.88-2.97.88-4.57Z"/>
      <path class="st6" d="M408.7,560.07h5.13v19.41c0,2.88.67,5.05,2,6.5s3.32,2.17,5.97,2.17,4.62-.72,5.95-2.17,2-3.62,2-6.5v-19.41h5.2v19.89c0,4.32-1.09,7.56-3.28,9.71-2.18,2.15-5.47,3.22-9.87,3.22s-7.68-1.07-9.85-3.21c-2.17-2.14-3.25-5.38-3.25-9.72v-19.89Z"/>
      <path class="st6" d="M452.57,577.69v14.35h-4.87v-31.97h7.86c2.33,0,4.04.13,5.14.38,1.1.26,2.06.67,2.87,1.26,1,.74,1.79,1.74,2.36,3,.57,1.26.85,2.65.85,4.16s-.28,2.91-.85,4.19c-.57,1.28-1.35,2.29-2.36,3.01-.82.58-1.77,1-2.87,1.24s-2.81.37-5.14.37h-2.99ZM452.89,573.43h1.33c2.88,0,4.8-.31,5.76-.94.96-.62,1.44-1.73,1.44-3.32,0-1.7-.51-2.9-1.54-3.6-1.03-.7-2.92-1.05-5.67-1.05h-1.33v8.91Z"/>
    </g>
    <g>
      <line class="st4" x1="513.07" y1="574.79" x2="480.03" y2="574.79"/>
      <line class="st4" x1="105.37" y1="574.79" x2="72.33" y2="574.79"/>
    </g>
  </g>
  <path class="st2" d="M187.11,275.47L51.11,407.31c.2-1.31.65-2.62,1.37-3.88l95.35-165.9c4.43-7.71,15.57-7.71,20,0l17.82,31.02c1.22,2.13,1.71,4.56,1.46,6.92Z"/>
  <path class="st2" d="M400.29,275.47l136,131.84c-.2-1.31-.65-2.62-1.37-3.88l-95.35-165.9c-4.43-7.71-15.57-7.71-20,0l-17.82,31.02c-1.22,2.13-1.71,4.56-1.46,6.92Z"/>
</svg>