<?xml version="1.0" encoding="UTF-8"?>
<svg id="Layer_1" data-name="Layer 1" xmlns="http://www.w3.org/2000/svg" viewBox="0 0 1008.9 876.18">
  <defs>
    <style>
      .cls-1 {
        fill: #d15e00;
      }

      .cls-2 {
        fill: #ff7900;
      }

      .cls-3 {
        fill: #087bb4;
      }

      .cls-4 {
        fill: #1e4d81;
      }
    </style>
  </defs>
  <path class="cls-4" d="M287.39,571.31c-.31,3.24-1.3,6.42-2.97,9.33l-157.57,274.1c-4.05,7.07-11.59,11.43-19.74,11.43H32.8c-14.57,0-24.59-13.08-22.54-26.22.41-2.67,1.32-5.34,2.79-7.91l194.29-338.05c9.03-15.71,31.73-15.71,40.75,0l36.31,63.21c2.49,4.34,3.48,9.29,2.97,14.1Z"/>
  <path class="cls-1" d="M709.79,367.75l-26.49,46.07c-12.31,21.42-43.2,21.42-55.51,0l-95.99-167.07c-6.15-10.7-16.95-16.06-27.75-16.06V10c10.8,0,21.6,5.36,27.75,16.08l177.99,309.76c5.69,9.88,5.69,22.03,0,31.91Z"/>
  <path class="cls-1" d="M588.8,866.18h-264.83c-11.45,0-22.05-6.13-27.75-16.06l-26.39-45.93c-12.27-21.33,3.14-47.97,27.75-47.97h172.71c24.61,0,40.02-26.63,27.75-47.97l-143.47-249.71,234.23,407.63Z"/>
  <path class="cls-2" d="M660.28,866.18h-71.48l-234.23-407.63-.02.04-54.24-94.43c-5.69-9.88-5.69-22.03,0-31.91L476.3,26.06c6.15-10.7,16.95-16.06,27.75-16.06v220.7c-10.8,0-21.6,5.36-27.75,16.06l-49.15,85.5c-5.69,9.88-5.69,22.03,0,31.91l225.28,392.06,35.62,61.99c12.25,21.35-3.16,47.97-27.77,47.97Z"/>
  <path class="cls-3" d="M287.39,571.31L10.27,839.96c.41-2.67,1.32-5.34,2.79-7.91l194.29-338.05c9.03-15.71,31.73-15.71,40.75,0l36.31,63.21c2.49,4.34,3.48,9.29,2.97,14.1Z"/>
  <g>
    <path class="cls-4" d="M720.51,571.31c.31,3.24,1.3,6.42,2.97,9.33l157.57,274.1c4.05,7.07,11.59,11.43,19.74,11.43h74.29c14.57,0,24.59-13.08,22.54-26.22-.41-2.67-1.32-5.34-2.79-7.91l-194.29-338.05c-9.03-15.71-31.73-15.71-40.75,0l-36.31,63.21c-2.49,4.34-3.48,9.29-2.97,14.1Z"/>
    <path class="cls-3" d="M720.51,571.31l277.12,268.64c-.41-2.67-1.32-5.34-2.79-7.91l-194.29-338.05c-9.03-15.71-31.73-15.71-40.75,0l-36.31,63.21c-2.49,4.34-3.48,9.29-2.97,14.1Z"/>
  </g>
</svg>